<?xml version="1.0" encoding="UTF-8"?>
<svg width="60px" height="60px" viewBox="0 0 60 60" version="1.1" xmlns="http://www.w3.org/2000/svg" xmlns:xlink="http://www.w3.org/1999/xlink">
    <!-- Generator: Sketch 50.2 (55047) - http://www.bohemiancoding.com/sketch -->
    <title>Logo</title>
    <desc>Created with Sketch.</desc>
    <defs></defs>
    <g id="Logo" stroke="none" stroke-width="1" fill="none" fill-rule="evenodd">
        <g id="Group">
            <path d="M2.63787815,14.5221485 C2.63787815,29.4925115 14.8505443,41.630159 29.9176039,41.630159 C44.9846635,41.630159 57.1973296,29.4925115 57.1973296,14.5221485 C57.1973296,9.18062738 55.6408252,4.19887306 52.9572382,0 C57.3512961,5.18614011 60,11.879476 60,19.1907503 C60,35.6539662 46.5688338,49 29.9993986,49 C13.4311662,49 0,35.6539662 0,19.1907503 C0,12.2488048 2.38768268,5.86384037 6.38960727,0.800809835 C4.00553317,4.82517807 2.63787815,9.5129037 2.63787815,14.5221485" id="Fill-1" fill="#BED63A" transform="translate(30.000000, 24.500000) scale(1, -1) translate(-30.000000, -24.500000) "></path>
            <path d="M33.9879223,12.1974893 C21.364607,12.1974893 11.1318723,22.375709 11.1318723,34.9294003 C11.1318723,47.4878379 21.364607,57.6636845 33.9879223,57.6636845 C38.4911368,57.6636845 42.6913535,56.3667861 46.2295082,54.1301407 C41.8587061,57.7918318 36.215075,60 30.0513375,60 C16.1707008,60 4.91803279,48.8072807 4.91803279,34.9994067 C4.91803279,21.1939059 16.1707008,10 30.0513375,10 C35.902534,10 41.286112,11.9886566 45.557903,15.3240466 C42.1640897,13.3377631 38.2096113,12.1974893 33.9879223,12.1974893" id="Fill-4" fill="#29ABE2" transform="translate(25.573770, 35.000000) scale(1, -1) translate(-25.573770, -35.000000) "></path>
        </g>
    </g>
</svg>